<svg xmlns="http://www.w3.org/2000/svg" width="32" height="32" viewBox="0 0 40 40">
  {/* Icon Mark Background */}
  <rect x="0" y="0" width="40" height="40" rx="10" fill="#F8FAFC" />
  
  {/* Screwdriver Chimney */}
  <rect x="24.5" y="6" width="3.5" height="5.5" rx="0.8" fill="#F59E0B" />
  <rect x="25.5" y="11.5" width="1.5" height="4.5" fill="#F59E0B" />

  {/* Amber Shield-Roof */}
  <polygon points="8,19 20,9 32,19 29,19 20,12.5 11,19" fill="#F59E0B" />

  {/* Blue House-Shield Body */}
  <path d="M 11 19 L 29 19 L 29 27 C 29 32.5 20 35 20 35 C 20 35 11 32.5 11 27 Z" fill="#2563EB" />

  {/* Connected Service Windows */}
  <line x1="15" y1="21.5" x2="25" y2="21.5" stroke="#FFFFFF" strokeWidth="1" />
  <circle cx="15" cy="21.5" r="1.5" fill="#FFFFFF" />
  <circle cx="20" cy="21.5" r="1.5" fill="#FFFFFF" />
  <circle cx="25" cy="21.5" r="1.5" fill="#FFFFFF" />

  {/* White Door */}
  <rect x="15" y="24" width="10" height="9.5" rx="1" fill="#FFFFFF" />

  {/* Success Green Door Checkmark */}
  <path d="M17.5 28.5 L19.5 30.5 L22.5 26" stroke="#10B981" strokeWidth="1.8" strokeLinecap="round" strokeLinejoin="round" fill="none" />

  {/* Foundation Beam */}
  <rect x="12" y="32.5" width="16" height="1.2" rx="0.6" fill="#FFFFFF" opacity="0.3" />
</svg>